<?xml version="1.0" encoding="UTF-8" standalone="no"?>
<svg width="200" height="200" viewBox="0 0 200 200" xmlns="http://www.w3.org/2000/svg">
  <!-- Rectangular duct bend -->
  <path d="M10,30 L90,30 Q130,30 130,70 L130,170" fill="none" stroke="#333" stroke-width="2" stroke-linecap="round"/>
  <path d="M10,70 L90,70 Q90,70 90,70 L90,70" fill="none" stroke="#333" stroke-width="2" stroke-linecap="round"/>
  <path d="M10,30 L10,70" fill="none" stroke="#333" stroke-width="2" stroke-linecap="round"/>
  <path d="M90,70 Q130,70 130,70" fill="none" stroke="#333" stroke-width="2" stroke-linecap="round"/>
  <path d="M130,70 L130,170" fill="none" stroke="#333" stroke-width="2" stroke-linecap="round"/>
  <path d="M90,30 Q130,30 130,70" fill="none" stroke="#333" stroke-width="2" stroke-linecap="round"/>
  <path d="M90,30 L90,70" fill="none" stroke="#333" stroke-width="2" stroke-linecap="round"/>
  <path d="M130,170 L170,170" fill="none" stroke="#333" stroke-width="2" stroke-linecap="round"/>
  <path d="M130,130 L170,130" fill="none" stroke="#333" stroke-width="2" stroke-linecap="round"/>
  <path d="M170,130 L170,170" fill="none" stroke="#333" stroke-width="2" stroke-linecap="round"/>

  <!-- Dimension lines for the bend -->
  <path d="M90,20 A40,40 0 0 1 140,70" fill="none" stroke="#555" stroke-width="1" stroke-dasharray="4"/>
  <text x="115" y="30" font-family="Arial" font-size="10" text-anchor="middle">Bend Radius</text>

  <!-- Width and height indicators -->
  <line x1="50" y1="15" x2="50" y2="85" stroke="#555" stroke-width="1" stroke-dasharray="4"/>
  <text x="40" y="50" font-family="Arial" font-size="10" text-anchor="middle" transform="rotate(90, 40, 50)">Height</text>

  <line x1="180" y1="150" x2="120" y2="150" stroke="#555" stroke-width="1" stroke-dasharray="4"/>
  <text x="150" y="145" font-family="Arial" font-size="10" text-anchor="middle">Width</text>

  <!-- Flow direction -->
  <path d="M50,50 L70,50 L65,45 M65,55 L70,50" fill="none" stroke="#333" stroke-width="1.5"/>
  <path d="M150,130 L150,150 L145,145 M155,145 L150,150" fill="none" stroke="#333" stroke-width="1.5"/>
  <text x="30" y="50" font-family="Arial" font-size="10" text-anchor="middle">Flow In</text>
  <text x="185" y="150" font-family="Arial" font-size="10" text-anchor="middle">Flow Out</text>
</svg>
